<svg xmlns="http://www.w3.org/2000/svg" width="24.665in" height="17.1958in" viewBox="0 0 1775.8826 1238.1005"><defs><style>.a{fill:#231f20;}.b{fill:#fff;}.c{fill:#c12026;}.d{fill:#f7ed38;}.e{fill:#221f1f;}</style></defs><title>logo-bright</title><path class="a" d="M124.9035,826.9649s115.2711-245.4986,361.924-276.82,778.7561,265.2192,778.7561,265.2192l25.7179-97.9838,5.5782-88.23L1062.3511,303.4923,631.6872,182.1234H349.7981L95.3149,464.0125l-64.55,154.53L.51,659.7714l3.1515,58.673,44.6724,78.3538Z"/><path class="a" d="M32.6076,776.5592,13.7061,750.336s-3.41-6.1552-6.4116-22.4419c-3.135-17.0081-2.2-48.2-1.968-68.1227.4549-39,61.1081,102.4113,61.1081,102.4113l-4.0087,34.9058Z"/><path class="a" d="M57.6089,775.2584S307.8686,534.4172,490.61,549.7673,879.2906,618.543,879.2906,618.543l393.409,164.9-7.1159,31.9219-28.0456,53.258-161.0049,137.99-535.5162,38.5012L145.5051,908.6094Z"/><path class="b" d="M402.4251,912.0759s26.9725,2.9969,43.9553,0,33.3486-2.0394,46.9522,8.9908l13.6036,11.03-.8678,45.9118H386.4414L380.03,945.3567S380.3927,910.77,402.4251,912.0759Z"/><path class="a" d="M506.3137,978.2588H386.2356l-6.4507-32.8545c-.0029-.25.3164-20.14,9.9839-29.1562a16.5012,16.5012,0,0,1,12.6709-4.4219l.0132.002c.2686.0293,27.1318,2.96,43.8843.002,20.17-3.5625,35.1533-.6875,47.1528,9.042l13.6987,11.1074-.0024.1221Zm-119.667-.5H505.8234l.86-45.5449-13.5083-10.9531C481.2976,911.63,466.44,908.79,446.424,912.3222c-16.7358,2.9551-43.4771.0635-44.02.0029a15.9492,15.9492,0,0,0-12.2935,4.2881c-9.5107,8.8691-9.8286,28.5479-9.8306,28.7461Z"/><path class="b" d="M274.2607,910.6108s33.305-18.1074,64.2987-7.5976S380.03,945.3567,380.03,945.3567L251.3236,944.31Z"/><path class="a" d="M380.3762,945.6093l-.3481-.0029-129.1748-1.0508.2637-.3867,22.9712-33.748.0527-.0293c.334-.1816,33.7588-18.041,64.4985-7.6143,30.7563,10.4287,41.5229,42.1816,41.6279,42.501Zm-128.5825-1.5459,127.8823,1.04c-1.2339-3.4141-12.373-32.0791-41.1968-41.8535-29.9614-10.1572-62.5269,6.748-64.0469,7.5527Z"/><path class="b" d="M623.1935,1012.5216l4.6239-100.5883s-5.5862-8.3421-14.8309-8.4847c-26.9908-.4162-81.9453-1.0032-98.0769.7892,0,0-10.5883-5.1487-8.59,16.8289s-.251,67.9309-.251,67.9309Z"/><path class="a" d="M623.43,1012.8242l-.2856-.0576L505.8083,989.2011l.0107-.2158c.0225-.459,2.2246-46.1875.2515-67.8965-.8154-8.9727.335-14.6025,3.42-16.7324a5.7806,5.7806,0,0,1,5.46-.374c15.9214-1.752,68.2407-1.2432,98.0391-.7842,9.2686.1426,14.9785,8.5117,15.0347,8.5967l.0459.0684-.0039.082ZM506.3283,988.7949l116.6289,23.4238,4.6069-100.2119c-.5527-.7812-6.0117-8.1768-14.5815-8.3086-29.83-.46-82.2344-.9678-98.0449.7881l-.0718.0088-.0649-.0322a5.41,5.41,0,0,0-5.03.3076c-2.0093,1.3906-4.1958,5.3438-3.2021,16.2734C508.4753,942.02,506.4909,985.3515,506.3283,988.7949Z"/><path class="b" d="M899.6849,972.8369l-2.5965-66.6816s0-13.1367-5.5578-15.1577-46.989,15.1577-46.989,15.1577l-89.2976,6.7466v102.4889Z"/><path class="a" d="M754.9939,1015.7246V912.6709l.231-.0176,89.2583-6.7441c2.1631-.8955,41.5894-17.1582,47.1323-15.1465,5.6572,2.0566,5.7227,14.8486,5.7227,15.3926l2.6045,66.8662-.1875.0557Zm.5-102.5908v101.9229L899.427,972.6523l-2.5889-66.4873c0-.14-.0635-12.9941-5.3926-14.9316-5.4014-1.9785-46.3945,14.9824-46.8081,15.1523l-.0767.0186Z"/><polygon class="b" points="755.244 992.136 747.944 903.013 648.695 903.013 627.817 911.933 627.817 1000.704 755.244 992.136"/><path class="a" d="M627.5676,1000.9716V911.7685l.1519-.0645,20.9751-8.94h99.48l.0186.2295,7.3208,89.375-.2534.0166Zm.5-88.873v88.3379l126.9063-8.5332-7.26-88.64H648.7458Z"/><path class="b" d="M1017.0861,958.273s-3.3108-69.2056-10.0782-67.77c0,0-71.3771-6.4026-78.4888-3.8165s-20.0421,9.6978-20.0421,9.6978-8.3621,1.2-8.7921,9.6409,0,36.0154,0,36.0154l-.1911,16.2325.1911,16.8285,97.0839,6.0582,20.3173-11.5142Z"/><path class="a" d="M996.8273,981.414l-.0742-.0049-97.3154-6.0723-.1943-17.0605.1914-16.2393c-.0039-.2686-.4248-27.6719,0-36.0244.4189-8.2148,8.2725-9.751,8.959-9.8682.78-.4277,13.1807-7.1992,20.04-9.6934,7.0547-2.5654,75.17,3.4961,78.5615,3.8a1.3707,1.3707,0,0,1,1.1074.3135c6.1533,4.7461,9.11,65.1289,9.2334,67.6973V969.791l-.127.0723Zm-96.8955-6.5479,96.7783,6.04,20.126-11.4062V958.2793c-.0449-.9385-3.082-62.7246-9.0391-67.3193a.8794.8794,0,0,0-.7373-.2129l-.0371.0078-.0371-.0029c-.7129-.0645-71.4-6.3662-78.3818-3.83-7.0117,2.55-19.877,9.61-20.0068,9.6807l-.084.0283c-.334.0488-8.1641,1.2754-8.5781,9.4072-.4248,8.3359-.0039,35.7227,0,35.998l-.1914,16.24Z"/><path class="b" d="M1111.5248,940.6787l-18.0817-42.8252s-11.42-9.2841-19.0334-7.0212c0,0-6.5445-5.1375-14.4255-4.7611s-22.7159,4.5486-22.7159,4.5486-20.43,8.3446-20.1821,14.3713l-3.6548,8.374,3.6548,44.908,62.8324,3.74Z"/><path class="a" d="M1079.9875,962.2675l-.084-.0049-63.0488-3.7529-3.6777-45.1865.0244-.0576,3.6328-8.3232c-.125-6.124,19.501-14.2109,20.3389-14.5537.1758-.0508,14.9795-4.1943,22.8-4.5674,7.3359-.3389,13.6133,4.0869,14.4873,4.7363,3.2061-.8994,7.3906.0127,12.4385,2.7158a47.3857,47.3857,0,0,1,6.7012,4.3857l.0732.0967,18.1621,43.0146Zm-62.67-4.23,62.5312,3.7207,31.3652-21.1709-17.9775-42.5781c-.8135-.6465-11.6084-9.06-18.7559-6.9375l-.124.0371-.1016-.08c-.0645-.0508-6.5762-5.0977-14.2588-4.707-7.7637.37-22.5127,4.498-22.6611,4.5391-.1758.0742-20.2373,8.3369-19.999,14.12l.002.0576-.0225.0527-3.6309,8.3164Z"/><path class="b" d="M1217.1042,873.4695s-45.23,7.8706-47.0009,12.6016c0,0-26.7245-3.0588-34.1412,6.1029,0,0-26.1765-4.4319-31.8481,6.5441s-4.1816,14.5048-4.1816,14.5048l9.0709,21.4837,10.8166,4.5851,88.5639-32.9112Z"/><path class="a" d="M1119.8137,939.5605l-.0918-.0381-10.9092-4.625-.04-.0928-9.07-21.4844c-.0625-.1484-1.4707-3.7627,4.19-14.7178,2.3623-4.5723,8.6777-7.1738,18.2627-7.5225a77.6646,77.6646,0,0,1,13.7051.8242c7.2979-8.7412,31.5693-6.374,34.0947-6.1006,1.1621-2.0283,9.3174-4.7354,24.2588-8.0518,11.4023-2.53,22.7344-4.5088,22.8477-4.5283l.3848-.0674-.1006.3779L1208.592,906.57l-.1211.0449Zm-10.62-5.0439,10.6318,4.5068,88.3506-32.832,8.5869-32.4082c-12.8145,2.2451-45.0283,8.6426-46.4248,12.376l-.0684.1826-.1943-.0225a98.7636,98.7636,0,0,0-14.2549-.3818c-6.8887.3447-15.8916,1.7344-19.6641,6.3936l-.0918.1133-.1445-.0244c-.26-.0439-26.0615-4.2754-31.584,6.4131-5.5166,10.6758-4.1865,14.26-4.1719,14.2939Z"/><path class="b" d="M182.9391,864.42s12.9917-10.993,23.9846-8.9942,35.4773,19.9872,35.4773,19.9872l22.4856,13.991,26.483,10.33v4.1012l-13.4914,12.0522-82.4472-23.485Z"/><path class="a" d="M277.9421,916.165l-.1323-.0381-82.5591-23.5176-.0479-.1064-12.5684-28.1523.1431-.1211c.1309-.11,13.2065-11.0479,24.1909-9.05,10.9233,1.9854,35.3354,19.8506,35.5806,20.0313l22.47,13.98L291.62,899.5625v4.3838l-.0835.0742Zm-82.33-23.9717,82.2021,23.415L291.12,903.7216v-3.8174l-26.3242-10.2686L242.2688,875.624c-.26-.19-24.5791-17.9873-35.39-19.9521-10.13-1.84-22.1821,7.64-23.6338,8.82Z"/><path class="c" d="M876.4341,496.1062l-48.5065-62.0721L664.7239,390.8053,519.5194,460.4568s-64.23,37.5727-75.8215,142.7553c-8.4518,76.6915,16.62,153.2427,66.007,212.5215C537.12,848.6394,570.7982,885.158,598.218,902.9c0,0,23.277,19.9518,82.0239,15.518,0,0,62.0721,11.0843,104.1925,8.8674s57.6384-3.3253,103.0841-27.7108,99.1758-105.3929,99.1758-105.3929,77.0647-169.6935-29.3447-244.4148c0,0-41.24-48.1976-67.7283-42.0619S876.4341,496.1062,876.4341,496.1062Z"/><path class="b" d="M164.0878,463.8039s34.4076-13.2266,52.9963-8.157,81.1144,11.8292,96.3233-16.8988,25.1519-102.357,25.1519-102.357Z"/><path class="a" d="M162.4182,464.7133l176.4673-128.87-.0786.5815c-.0991.7363-10.1226,74.002-25.1782,102.44-15.125,28.5688-76.99,22.3735-96.61,17.0229-18.2974-4.9888-52.4976,8.0166-52.8408,8.1489ZM338.2307,336.94l-172.563,126.019c7.1309-2.5435,35.37-11.9478,51.4824-7.5537,19.52,5.3237,81.0522,11.5278,96.0366-16.7749C327.4875,411.6176,337.25,343.9428,338.2307,336.94Z"/><path class="b" d="M319.9673,348.1142l-20.0788,51.7666s-1.69,40.5572,30.4179,47.3167,33.7977,11.8292,82.8042,6.76,50.6965-30.4179,50.6965-30.4179L490.61,267.04H423.25l-108.1525,41.587Z"/><path class="a" d="M381.008,456.2773c-14.272,0-22.1523-1.9653-33.7124-4.8491-4.8013-1.1973-10.2432-2.5547-17.0405-3.9858-9.2192-1.9409-21.4629-8.09-27.436-26.36a67.8628,67.8628,0,0,1-3.1807-21.2114l.0171-.08,20.0562-51.708-4.8862-39.6187.1821-.07L423.2033,266.79H490.906l-.05.292L464.0534,423.581c-.0015.0391-.501,6.4814-7.0352,13.437-10.877,11.5791-29.8667,15.7378-43.8818,17.1875A319.2759,319.2759,0,0,1,381.008,456.2773Zm-80.8711-56.3457A67.4187,67.4187,0,0,0,303.299,420.94c3.2568,9.9541,10.5952,22.5469,27.0586,26.0132,6.8066,1.4331,12.2534,2.7915,17.0591,3.99,18.0347,4.498,27.0864,6.7554,65.668,2.7651,13.9131-1.4395,32.76-5.5571,43.5386-17,6.4316-6.8286,6.93-13.1235,6.9341-13.186L490.3132,267.29H423.2961l-107.9268,41.5,4.854,39.356-.0229.0586Z"/><path class="b" d="M500.4842,247.1019l-30.4179,92.9435s-16.8988,94.6334,15.2089,99.7031,174.3057,9.9,174.3057,9.9h14.51s12.3336,4.353,10.8826-34.8243l7.2551-91.4137V253.0368L530.4409,231.2716Z"/><path class="a" d="M675.1628,450.0459a3.8935,3.8935,0,0,1-1.1113-.147H659.5808c-1.4307-.0483-142.5889-4.8892-174.3447-9.9033-4.4678-.7056-8.2422-3.1831-11.2192-7.3638-4.7329-6.6475-10.0176-21.5986-8.3179-55.0786a340.1311,340.1311,0,0,1,4.1211-37.5518l30.458-93.0732.0894-.0474,30.0278-15.8677.0791.0107,162.0044,21.7939v70.5933l-7.2559,91.4336c.8682,23.3877-3.1816,31.4165-6.7314,34.0278A5.5771,5.5771,0,0,1,675.1628,450.0459Zm-1.0718-.647.0825.0142a4.5767,4.5767,0,0,0,4.0386-.9556c3.4443-2.5508,7.37-10.4546,6.5117-33.6235l7.2559-91.4429-.001-70.1357L530.487,231.53,500.69,247.2758,470.3039,340.123a340.5472,340.5472,0,0,0-4.1055,37.4609c-1.6919,33.333,3.54,48.1758,8.2261,54.7578,2.896,4.0674,6.56,6.4761,10.89,7.16,31.7256,5.01,172.8535,9.8491,174.2749,9.8975Z"/><path class="b" d="M908.9481,279.0472l-5.5453,68.92-5.5453,74.4651,5.5453,23.7654L960.44,460.4568h58.6214l28.5185-4.7531s28.5114-10.7381,20.1971-61.2179-29.7033-96.4263-29.7033-96.4263l-94.27-51.4918Z"/><path class="a" d="M960.44,460.707l-57.2461-14.3037-.0342-.1489-5.5537-23.8027.0029-.0381,5.5449-74.4653,5.5537-69.0176.07-.0664,34.9883-32.6021,94.5,51.6172.0342.0747c.2139.46,21.498,46.5552,29.7236,96.4912,2.3779,14.4375,3.09,34.7832-7.0205,49.72-6.0625,8.9565-13.2627,11.7456-13.335,11.7725l-28.5654,4.7661Zm-56.8281-14.7148L960.5,460.2143l58.5615-.0073,28.4775-4.75c.0234-.0142,7.0977-2.7622,13.07-11.6025,9.9971-14.7983,9.2813-34.9927,6.92-49.3281-8.0586-48.9287-28.6719-94.1646-29.6484-96.2871L943.842,246.8735,909.19,279.164l-5.5381,68.8228-5.542,74.4258Z"/><path class="b" d="M895.2973,257.2334s13.4671,80.8025,15.0515,104.568,0,60.998,0,60.998,3.9609,34.856-25.35,35.6482-169.5269-3.7825-169.5269-3.7825l-16.6358-4.1393s-9.5062-14.2593-8.714-29.3107,7.13-113.282,7.13-113.282l5.5453-54.6605,152.0989-28.5185Z"/><path class="a" d="M876.1032,458.7885c-41.38,0-159.3491-3.8315-160.64-3.8735l-16.7817-4.17-.0537-.0806c-.0957-.1431-9.543-14.5015-8.7554-29.4629.7827-14.88,7.0659-112.3022,7.1294-113.2847l5.5649-54.856.1841-.0342,152.2119-28.54,40.5645,32.6113.0166.0942c.1338.8081,13.4873,81.0869,15.0537,104.5923,1.5674,23.5073.0166,60.6528.001,61.0254a49.3053,49.3053,0,0,1-.1562,9.9985c-.5947,5.187-2.3018,12.5186-7.0557,17.99-4.37,5.03-10.5537,7.6875-18.3809,7.8994C882.6975,458.76,879.6848,458.7885,876.1032,458.7885Zm-177.1113-8.4814,16.5405,4.1152c1.35.0386,140.4873,4.5552,169.46,3.7754,7.6807-.2075,13.7432-2.8076,18.0176-7.7275,4.6689-5.3745,6.3486-12.6021,6.9355-17.7187a48.9892,48.9892,0,0,0,.1553-9.9238c.0137-.4111,1.5635-37.53-.001-61.01-1.541-23.1187-14.5049-101.27-15.0342-104.4492L854.8293,225.021,703.0271,253.4838,697.5,307.9585c-.0625.9731-6.3452,98.3916-7.1284,113.27C689.6237,435.4477,698.2341,449.1338,698.9919,450.3071Z"/><path class="b" d="M1075.8513,393.2158l-6.5547,45.3973s-7.15,13.7049,6.5547,16.2745,67.6677,11.1352,67.6677,11.1352v-65.098l-59.1022-18.8442Z"/><path class="a" d="M1143.7688,466.3159l-.2891-.0459c-.54-.0859-54.123-8.5957-67.6738-11.1367-3.8828-.728-6.4922-2.415-7.7549-5.0142-2.333-4.8018.6992-10.9834,1.0049-11.583l6.5576-45.4209.04-.0518,8.6729-11.2744,59.4424,18.9531Zm-67.6787-73-6.5713,45.4126c-.0332.064-3.3105,6.4575-1.0176,11.1733,1.19,2.4478,3.6787,4.0425,7.3965,4.74,13.0264,2.4429,63.085,10.4067,67.3711,11.0879V401.1074L1084.508,382.372Z"/><path class="c" d="M1265.5837,815.3645c-21.907,40.6319-63.0825,75.755-111.7937,98.0064-97.7125,44.636-217.7908,52.2761-217.7908,52.2761-409.273,86.0621-594.7843-40.1622-594.7843-40.1622C19.9165,814.56,8.7092,733.5125,8.7092,733.5125-13.63,689.0277,30.765,630.4576,30.765,618.5429s43.1338-56.7075,43.1338-56.7075l90.189-98.0315S430.7337,234.41,550.3321,265.78s180.3779-3.9213,284.2914,0S1078.12,398.3759,1097.0151,425.6693,1160,493.5524,1160,493.5524l90.2777,103.5743s40.8533,48.4585,41.0243,120.254c6.2905-32.919,9.1467-63.9652,5.5782-88.23-14.2706-97.0412-99.8954-328.2279-99.8954-328.2279s-62.7916-137-208.3535-231.1867S763.1523-1.6182,720.34,15.5066,617.59,24.069,617.59,24.069C590.8328,6.9442,502.1686-14.12,415.9057,27.88c-143.7719,70-307.3408,242.9146-360.6095,371.282-85.1451,205.183-46.587,334.3509-46.587,334.3509-3.1116,129.5531,85.6214,269.4,234.3287,402.1168l3.7922,3.8227c82.867,92.2166,359.3437,97.6341,359.3437,97.6341s192.7654,13.1627,392.5562-55.3371,266.8537-366.3844,266.8537-366.3844,2.2669-3.1678,22.7289-67.3416C1288.3126,748.023,1265.5865,815.36,1265.5837,815.3645Z"/><polygon class="b" points="706.841 593.014 702.25 555.153 669.409 579.39 691.211 547.416 649.492 544.893 689.553 533.599 656.409 505.664 696.737 524.756 686.924 480.059 707.238 520.335 726.758 480.059 719.397 518.124 757.273 505.664 725.476 529.177 764.19 544.893 726.582 545.205 744.273 579.39 716.634 555.153 706.841 593.014"/><path class="d" d="M1696.7512,328.603s-116.0571-44.7185-144.8863-86.8572-31.4357-100.0482-31.4357-100.0482l5.5566-91.2368L1505.148,78.5225s-18.2313,85.9712-33.1551,97.6933-20.4938,30.39-50.1961,14.5536-76.943-30.3892-76.943-30.3892l46.3038,71.72s47.6913,59.5388,18.6369,117.23l-26.32,89.5906,54.8612-61.5038s30.0516-42.0167,47.64,10.1027,31.7089,112.0028,31.7089,112.0028l4.5821-44.8466,6.3562-59.6122L1541.9,355.5249s-1.9062-12.9034,26.84-19.1279,57.3247-9.1278,57.3247-9.1278l58.6811,4.516Z"/><path class="d" d="M1576.0935,381.0755l49.4474,96.5369s-.2385,50.6688-24.4229,14.7645l-16.3221-56.5618Z"/><path class="d" d="M1653.4755,257.0818s103.3514,19.918,119.29-11.6153-34.425-18.0857-34.425-18.0857Z"/><path class="d" d="M1561.5617,205.5873l76.3991-92.815s-20.0519-25.3582-35.7707,1.8516S1578.025,183.4167,1561.5617,205.5873Z"/><path class="d" d="M1428.2,135.1665l-24.719-97.6154s-41.1726-23.0962-43.0432-12.5216,20.94,60.4131,58.1229,102.979Z"/><path class="d" d="M1360.1228,236.7238l-43.365-32.2015s-21.1172,2.2646-27.8072,9.2605,41.4376,30.77,41.4376,30.77Z"/><path class="d" d="M1439.0522,446.8049s-26.2265,89.6941-55.9082,109.5264-15.862-2.8059-15.862-2.8059,6.3562-26.6849,14.4494-41.6116S1439.0522,446.8049,1439.0522,446.8049Z"/><path class="a" d="M856.1755,464.041c25.0743-15.9564,159.5638-116.2536,259.8611-150.4459s237.0662-54.7076,237.0662-54.7076,91.1793,0,98.0178-11.3974,47.8691,9.1179,47.8691,9.1179,11.3974,36.4717,0,47.8691-29.6333,22.7948-29.6333,22.7948-36.4717-13.6769-38.7512-25.0743-70.664-6.8384-70.664-6.8384-257.5816,20.5153-396.63,134.4895c0,0-84.3409,63.8255-88.9,79.7819s0,31.9128,0,31.9128-43.31,0-54.7076-29.6333"/><path class="e" d="M769.6725,466.5942s15.86,85.7665,157.8109,113.7189"/></svg>